<svg xmlns="http://www.w3.org/2000/svg" viewBox="0 0 600 600" width="600" height="600" role="img" aria-label="Ilustrasi pemandangan Bromo Tengger Semeru"><defs><linearGradient id="langit-bromo-tengger-semeru-1" x1="0" y1="0" x2="0" y2="1"><stop offset="0%" stop-color="#1AB0E2"/><stop offset="100%" stop-color="#8CDCF6"/></linearGradient><linearGradient id="laut-bromo-tengger-semeru-1" x1="0" y1="0" x2="0" y2="1"><stop offset="0%" stop-color="#0086C3"/><stop offset="100%" stop-color="#004E80"/></linearGradient></defs><rect x="0" y="0" width="600" height="348" fill="url(#langit-bromo-tengger-semeru-1)"/><circle cx="119" cy="168" r="83.3" fill="#FFC74E" opacity="0.18"/><circle cx="119" cy="168" r="49" fill="#FFC74E"/><g fill="#FFFFFF" opacity="0.34" transform="translate(463,165) scale(1.49)"><ellipse cx="0" cy="0" rx="90" ry="26"/><ellipse cx="-42" cy="8" rx="52" ry="20"/><ellipse cx="46" cy="10" rx="60" ry="18"/></g><g fill="#FFFFFF" opacity="0.21" transform="translate(424,159) scale(1.13)"><ellipse cx="0" cy="0" rx="90" ry="26"/><ellipse cx="-42" cy="8" rx="52" ry="20"/><ellipse cx="46" cy="10" rx="60" ry="18"/></g><g fill="#FFFFFF" opacity="0.23" transform="translate(112,113) scale(1.02)"><ellipse cx="0" cy="0" rx="90" ry="26"/><ellipse cx="-42" cy="8" rx="52" ry="20"/><ellipse cx="46" cy="10" rx="60" ry="18"/></g><polygon points="-40,350 9,350 96,261 183,350 160,350 216,277 272,350 273,350 336,279 399,350 400,350 456,259 512,350 640,350" fill="#003D63" opacity="0.9"/><polygon points="-40,350 128,350 219,265 310,350 251,350 339,303 427,350 363,350 459,285 555,350 495,350 579,255 663,350 640,350" fill="#00263F" opacity="0.82"/><polygon points="-40,350 12,350 92,321 172,350 149,350 212,317 275,350 257,350 332,319 407,350 365,350 452,323 539,350 640,350" fill="#001220" opacity="0.74"/><rect x="0" y="348" width="600" height="252" fill="url(#laut-bromo-tengger-semeru-1)"/><path d="M -20 393 q 75 -14 150 0 q 75 -14 150 0 q 75 -14 150 0 q 75 -14 150 0 q 75 -14 150 0 L 640 600 L -20 600 Z" fill="#FFFFFF" opacity="0.1"/><path d="M -20 443 q 75 -16 150 0 q 75 -16 150 0 q 75 -16 150 0 q 75 -16 150 0 q 75 -16 150 0 L 640 600 L -20 600 Z" fill="#FFFFFF" opacity="0.16"/><path d="M -20 494 q 75 -15 150 0 q 75 -15 150 0 q 75 -15 150 0 q 75 -15 150 0 q 75 -15 150 0 L 640 600 L -20 600 Z" fill="#FFFFFF" opacity="0.22"/><path d="M -20 544 q 75 -18 150 0 q 75 -18 150 0 q 75 -18 150 0 q 75 -18 150 0 q 75 -18 150 0 L 640 600 L -20 600 Z" fill="#FFFFFF" opacity="0.28"/><g fill="#001220"><ellipse cx="60" cy="610" rx="92.8" ry="58"/><ellipse cx="118" cy="616" rx="58" ry="40.6"/></g></svg>