<svg xmlns="http://www.w3.org/2000/svg" viewBox="0 0 600 600" width="600" height="600" role="img" aria-label="Ilustrasi pemandangan Candi Borobudur"><defs><linearGradient id="langit-candi-borobudur-2" x1="0" y1="0" x2="0" y2="1"><stop offset="0%" stop-color="#7FD4F3"/><stop offset="100%" stop-color="#E8F7FD"/></linearGradient><linearGradient id="laut-candi-borobudur-2" x1="0" y1="0" x2="0" y2="1"><stop offset="0%" stop-color="#0E9BD4"/><stop offset="100%" stop-color="#00527F"/></linearGradient></defs><rect x="0" y="0" width="600" height="330" fill="url(#langit-candi-borobudur-2)"/><circle cx="360" cy="120" r="51" fill="#FFC74E" opacity="0.18"/><circle cx="360" cy="120" r="30" fill="#FFC74E"/><g fill="#FFFFFF" opacity="0.24" transform="translate(233,109) scale(1.46)"><ellipse cx="0" cy="0" rx="90" ry="26"/><ellipse cx="-42" cy="8" rx="52" ry="20"/><ellipse cx="46" cy="10" rx="60" ry="18"/></g><g fill="#FFFFFF" opacity="0.23" transform="translate(6,42) scale(1.27)"><ellipse cx="0" cy="0" rx="90" ry="26"/><ellipse cx="-42" cy="8" rx="52" ry="20"/><ellipse cx="46" cy="10" rx="60" ry="18"/></g><g fill="#FFFFFF" opacity="0.31" transform="translate(506,160) scale(1.01)"><ellipse cx="0" cy="0" rx="90" ry="26"/><ellipse cx="-42" cy="8" rx="52" ry="20"/><ellipse cx="46" cy="10" rx="60" ry="18"/></g><polygon points="-40,332 -22,332 93,231 208,332 189,332 293,233 397,332 640,332" fill="#005084" opacity="0.9"/><polygon points="-40,332 50,332 156,233 262,332 198,332 356,249 514,332 640,332" fill="#00344F" opacity="0.82"/><rect x="0" y="330" width="600" height="270" fill="url(#laut-candi-borobudur-2)"/><path d="M -20 378 q 75 -21 150 0 q 75 -21 150 0 q 75 -21 150 0 q 75 -21 150 0 q 75 -21 150 0 L 640 600 L -20 600 Z" fill="#FFFFFF" opacity="0.1"/><path d="M -20 432 q 75 -18 150 0 q 75 -18 150 0 q 75 -18 150 0 q 75 -18 150 0 q 75 -18 150 0 L 640 600 L -20 600 Z" fill="#FFFFFF" opacity="0.16"/><path d="M -20 486 q 75 -24 150 0 q 75 -24 150 0 q 75 -24 150 0 q 75 -24 150 0 q 75 -24 150 0 L 640 600 L -20 600 Z" fill="#FFFFFF" opacity="0.22"/><path d="M -20 540 q 75 -23 150 0 q 75 -23 150 0 q 75 -23 150 0 q 75 -23 150 0 q 75 -23 150 0 L 640 600 L -20 600 Z" fill="#FFFFFF" opacity="0.28"/><g fill="#001220"><ellipse cx="60" cy="610" rx="64" ry="40"/><ellipse cx="100" cy="616" rx="40" ry="28"/></g></svg>