<svg xmlns="http://www.w3.org/2000/svg" viewBox="0 0 600 600" width="600" height="600" role="img" aria-label="Ilustrasi pemandangan Gili Trawangan"><defs><linearGradient id="langit-gili-trawangan-2" x1="0" y1="0" x2="0" y2="1"><stop offset="0%" stop-color="#F2A33B"/><stop offset="100%" stop-color="#FFD98A"/></linearGradient><linearGradient id="laut-gili-trawangan-2" x1="0" y1="0" x2="0" y2="1"><stop offset="0%" stop-color="#0E5C8F"/><stop offset="100%" stop-color="#001B2E"/></linearGradient></defs><rect x="0" y="0" width="600" height="360" fill="url(#langit-gili-trawangan-2)"/><circle cx="219" cy="167" r="86.7" fill="#FFE3A3" opacity="0.18"/><circle cx="219" cy="167" r="51" fill="#FFE3A3"/><g fill="#FFE9C7" opacity="0.33" transform="translate(393,79) scale(0.74)"><ellipse cx="0" cy="0" rx="90" ry="26"/><ellipse cx="-42" cy="8" rx="52" ry="20"/><ellipse cx="46" cy="10" rx="60" ry="18"/></g><g fill="#FFE9C7" opacity="0.32" transform="translate(66,117) scale(1.42)"><ellipse cx="0" cy="0" rx="90" ry="26"/><ellipse cx="-42" cy="8" rx="52" ry="20"/><ellipse cx="46" cy="10" rx="60" ry="18"/></g><polygon points="-40,362 -14,362 108,281 230,362 206,362 308,316 410,362 640,362" fill="#0A3350" opacity="0.9"/><polygon points="-40,362 -23,362 129,317 281,362 229,362 329,313 429,362 640,362" fill="#04223A" opacity="0.82"/><polygon points="-40,362 47,362 157,327 267,362 244,362 357,327 470,362 640,362" fill="#001220" opacity="0.74"/><rect x="0" y="360" width="600" height="240" fill="url(#laut-gili-trawangan-2)"/><path d="M -20 403 q 75 -17 150 0 q 75 -17 150 0 q 75 -17 150 0 q 75 -17 150 0 q 75 -17 150 0 L 640 600 L -20 600 Z" fill="#FFFFFF" opacity="0.1"/><path d="M -20 451 q 75 -10 150 0 q 75 -10 150 0 q 75 -10 150 0 q 75 -10 150 0 q 75 -10 150 0 L 640 600 L -20 600 Z" fill="#FFFFFF" opacity="0.16"/><path d="M -20 499 q 75 -12 150 0 q 75 -12 150 0 q 75 -12 150 0 q 75 -12 150 0 q 75 -12 150 0 L 640 600 L -20 600 Z" fill="#FFFFFF" opacity="0.22"/><path d="M -20 547 q 75 -22 150 0 q 75 -22 150 0 q 75 -22 150 0 q 75 -22 150 0 q 75 -22 150 0 L 640 600 L -20 600 Z" fill="#FFFFFF" opacity="0.28"/><g fill="#001220" transform="translate(282,462) scale(0.92)"><path d="M -70 0 L 70 0 L 48 26 L -48 26 Z"/><rect x="-4" y="-72" width="8" height="72"/><path d="M 6 -68 L 62 -8 L 6 -8 Z"/></g></svg>