<svg xmlns="http://www.w3.org/2000/svg" viewBox="0 0 600 600" width="600" height="600" role="img" aria-label="Ilustrasi pemandangan Karimunjawa"><defs><linearGradient id="langit-karimunjawa-2" x1="0" y1="0" x2="0" y2="1"><stop offset="0%" stop-color="#7FD4F3"/><stop offset="100%" stop-color="#E8F7FD"/></linearGradient><linearGradient id="laut-karimunjawa-2" x1="0" y1="0" x2="0" y2="1"><stop offset="0%" stop-color="#0E9BD4"/><stop offset="100%" stop-color="#00527F"/></linearGradient></defs><rect x="0" y="0" width="600" height="366" fill="url(#langit-karimunjawa-2)"/><circle cx="236" cy="183" r="51" fill="#FFC74E" opacity="0.18"/><circle cx="236" cy="183" r="30" fill="#FFC74E"/><g fill="#FFFFFF" opacity="0.19" transform="translate(441,133) scale(1.29)"><ellipse cx="0" cy="0" rx="90" ry="26"/><ellipse cx="-42" cy="8" rx="52" ry="20"/><ellipse cx="46" cy="10" rx="60" ry="18"/></g><g fill="#FFFFFF" opacity="0.16" transform="translate(307,157) scale(1.48)"><ellipse cx="0" cy="0" rx="90" ry="26"/><ellipse cx="-42" cy="8" rx="52" ry="20"/><ellipse cx="46" cy="10" rx="60" ry="18"/></g><g fill="#FFFFFF" opacity="0.27" transform="translate(367,104) scale(1.02)"><ellipse cx="0" cy="0" rx="90" ry="26"/><ellipse cx="-42" cy="8" rx="52" ry="20"/><ellipse cx="46" cy="10" rx="60" ry="18"/></g><g fill="#FFFFFF" opacity="0.34" transform="translate(183,79) scale(1.01)"><ellipse cx="0" cy="0" rx="90" ry="26"/><ellipse cx="-42" cy="8" rx="52" ry="20"/><ellipse cx="46" cy="10" rx="60" ry="18"/></g><polygon points="-40,368 109,368 217,320 325,368 321,368 417,322 513,368 640,368" fill="#005084" opacity="0.9"/><polygon points="-40,368 -8,368 77,334 162,368 139,368 227,326 315,368 274,368 377,312 480,368 640,368" fill="#00344F" opacity="0.82"/><rect x="0" y="366" width="600" height="234" fill="url(#laut-karimunjawa-2)"/><path d="M -20 408 q 75 -20 150 0 q 75 -20 150 0 q 75 -20 150 0 q 75 -20 150 0 q 75 -20 150 0 L 640 600 L -20 600 Z" fill="#FFFFFF" opacity="0.1"/><path d="M -20 454 q 75 -16 150 0 q 75 -16 150 0 q 75 -16 150 0 q 75 -16 150 0 q 75 -16 150 0 L 640 600 L -20 600 Z" fill="#FFFFFF" opacity="0.16"/><path d="M -20 501 q 75 -21 150 0 q 75 -21 150 0 q 75 -21 150 0 q 75 -21 150 0 q 75 -21 150 0 L 640 600 L -20 600 Z" fill="#FFFFFF" opacity="0.22"/><path d="M -20 548 q 75 -15 150 0 q 75 -15 150 0 q 75 -15 150 0 q 75 -15 150 0 q 75 -15 150 0 L 640 600 L -20 600 Z" fill="#FFFFFF" opacity="0.28"/><g fill="#001220"><ellipse cx="60" cy="610" rx="92.8" ry="58"/><ellipse cx="118" cy="616" rx="58" ry="40.6"/></g></svg>