<svg xmlns="http://www.w3.org/2000/svg" viewBox="0 0 600 600" width="600" height="600" role="img" aria-label="Ilustrasi pemandangan Labuan Bajo"><defs><linearGradient id="langit-labuan-bajo-1" x1="0" y1="0" x2="0" y2="1"><stop offset="0%" stop-color="#1AB0E2"/><stop offset="100%" stop-color="#8CDCF6"/></linearGradient><linearGradient id="laut-labuan-bajo-1" x1="0" y1="0" x2="0" y2="1"><stop offset="0%" stop-color="#0086C3"/><stop offset="100%" stop-color="#004E80"/></linearGradient></defs><rect x="0" y="0" width="600" height="324" fill="url(#langit-labuan-bajo-1)"/><circle cx="173" cy="181" r="69.7" fill="#FFC74E" opacity="0.18"/><circle cx="173" cy="181" r="41" fill="#FFC74E"/><g fill="#FFFFFF" opacity="0.32" transform="translate(254,88) scale(0.85)"><ellipse cx="0" cy="0" rx="90" ry="26"/><ellipse cx="-42" cy="8" rx="52" ry="20"/><ellipse cx="46" cy="10" rx="60" ry="18"/></g><g fill="#FFFFFF" opacity="0.31" transform="translate(38,40) scale(1.28)"><ellipse cx="0" cy="0" rx="90" ry="26"/><ellipse cx="-42" cy="8" rx="52" ry="20"/><ellipse cx="46" cy="10" rx="60" ry="18"/></g><g fill="#FFFFFF" opacity="0.26" transform="translate(275,63) scale(1.49)"><ellipse cx="0" cy="0" rx="90" ry="26"/><ellipse cx="-42" cy="8" rx="52" ry="20"/><ellipse cx="46" cy="10" rx="60" ry="18"/></g><polygon points="-40,326 52,326 202,239 352,326 256,326 402,260 548,326 640,326" fill="#003D63" opacity="0.9"/><polygon points="-40,326 122,326 210,277 298,326 263,326 330,289 397,326 390,326 450,291 510,326 479,326 570,293 661,326 640,326" fill="#00263F" opacity="0.82"/><polygon points="-40,326 108,326 254,297 400,326 320,326 454,284 588,326 640,326" fill="#001220" opacity="0.74"/><rect x="0" y="324" width="600" height="276" fill="url(#laut-labuan-bajo-1)"/><path d="M -20 373 q 75 -10 150 0 q 75 -10 150 0 q 75 -10 150 0 q 75 -10 150 0 q 75 -10 150 0 L 640 600 L -20 600 Z" fill="#FFFFFF" opacity="0.1"/><path d="M -20 428 q 75 -11 150 0 q 75 -11 150 0 q 75 -11 150 0 q 75 -11 150 0 q 75 -11 150 0 L 640 600 L -20 600 Z" fill="#FFFFFF" opacity="0.16"/><path d="M -20 484 q 75 -25 150 0 q 75 -25 150 0 q 75 -25 150 0 q 75 -25 150 0 q 75 -25 150 0 L 640 600 L -20 600 Z" fill="#FFFFFF" opacity="0.22"/><path d="M -20 539 q 75 -23 150 0 q 75 -23 150 0 q 75 -23 150 0 q 75 -23 150 0 q 75 -23 150 0 L 640 600 L -20 600 Z" fill="#FFFFFF" opacity="0.28"/><g fill="#001220" transform="translate(169,432) scale(1.03)"><path d="M -70 0 L 70 0 L 48 26 L -48 26 Z"/><rect x="-4" y="-72" width="8" height="72"/><path d="M 6 -68 L 62 -8 L 6 -8 Z"/></g></svg>