<svg xmlns="http://www.w3.org/2000/svg" viewBox="0 0 600 600" width="600" height="600" role="img" aria-label="Ilustrasi pemandangan Tebing Breksi"><defs><linearGradient id="langit-tebing-breksi-2" x1="0" y1="0" x2="0" y2="1"><stop offset="0%" stop-color="#1AB0E2"/><stop offset="100%" stop-color="#8CDCF6"/></linearGradient><linearGradient id="laut-tebing-breksi-2" x1="0" y1="0" x2="0" y2="1"><stop offset="0%" stop-color="#0086C3"/><stop offset="100%" stop-color="#004E80"/></linearGradient></defs><rect x="0" y="0" width="600" height="366" fill="url(#langit-tebing-breksi-2)"/><circle cx="408" cy="92" r="74.8" fill="#FFC74E" opacity="0.18"/><circle cx="408" cy="92" r="44" fill="#FFC74E"/><g fill="#FFFFFF" opacity="0.16" transform="translate(33,143) scale(1.5)"><ellipse cx="0" cy="0" rx="90" ry="26"/><ellipse cx="-42" cy="8" rx="52" ry="20"/><ellipse cx="46" cy="10" rx="60" ry="18"/></g><g fill="#FFFFFF" opacity="0.29" transform="translate(170,47) scale(0.86)"><ellipse cx="0" cy="0" rx="90" ry="26"/><ellipse cx="-42" cy="8" rx="52" ry="20"/><ellipse cx="46" cy="10" rx="60" ry="18"/></g><g fill="#FFFFFF" opacity="0.33" transform="translate(440,150) scale(0.88)"><ellipse cx="0" cy="0" rx="90" ry="26"/><ellipse cx="-42" cy="8" rx="52" ry="20"/><ellipse cx="46" cy="10" rx="60" ry="18"/></g><polygon points="-40,368 86,368 242,288 398,368 346,368 442,286 538,368 640,368" fill="#003D63" opacity="0.9"/><polygon points="-40,368 102,368 208,309 314,368 266,368 408,316 550,368 640,368" fill="#00263F" opacity="0.82"/><rect x="0" y="366" width="600" height="234" fill="url(#laut-tebing-breksi-2)"/><path d="M -20 408 q 75 -23 150 0 q 75 -23 150 0 q 75 -23 150 0 q 75 -23 150 0 q 75 -23 150 0 L 640 600 L -20 600 Z" fill="#FFFFFF" opacity="0.1"/><path d="M -20 454 q 75 -16 150 0 q 75 -16 150 0 q 75 -16 150 0 q 75 -16 150 0 q 75 -16 150 0 L 640 600 L -20 600 Z" fill="#FFFFFF" opacity="0.16"/><path d="M -20 501 q 75 -21 150 0 q 75 -21 150 0 q 75 -21 150 0 q 75 -21 150 0 q 75 -21 150 0 L 640 600 L -20 600 Z" fill="#FFFFFF" opacity="0.22"/><path d="M -20 548 q 75 -23 150 0 q 75 -23 150 0 q 75 -23 150 0 q 75 -23 150 0 q 75 -23 150 0 L 640 600 L -20 600 Z" fill="#FFFFFF" opacity="0.28"/><g fill="#001220"><ellipse cx="60" cy="610" rx="91.2" ry="57"/><ellipse cx="117" cy="616" rx="57" ry="39.9"/></g></svg>