<svg xmlns="http://www.w3.org/2000/svg" viewBox="0 0 600 600" width="600" height="600" role="img" aria-label="Ilustrasi pemandangan Wakatobi"><defs><linearGradient id="langit-wakatobi-1" x1="0" y1="0" x2="0" y2="1"><stop offset="0%" stop-color="#F2A33B"/><stop offset="100%" stop-color="#FFD98A"/></linearGradient><linearGradient id="laut-wakatobi-1" x1="0" y1="0" x2="0" y2="1"><stop offset="0%" stop-color="#0E5C8F"/><stop offset="100%" stop-color="#001B2E"/></linearGradient></defs><rect x="0" y="0" width="600" height="366" fill="url(#langit-wakatobi-1)"/><circle cx="194" cy="80" r="54.4" fill="#FFE3A3" opacity="0.18"/><circle cx="194" cy="80" r="32" fill="#FFE3A3"/><g fill="#FFE9C7" opacity="0.3" transform="translate(199,102) scale(0.78)"><ellipse cx="0" cy="0" rx="90" ry="26"/><ellipse cx="-42" cy="8" rx="52" ry="20"/><ellipse cx="46" cy="10" rx="60" ry="18"/></g><g fill="#FFE9C7" opacity="0.16" transform="translate(259,66) scale(1.23)"><ellipse cx="0" cy="0" rx="90" ry="26"/><ellipse cx="-42" cy="8" rx="52" ry="20"/><ellipse cx="46" cy="10" rx="60" ry="18"/></g><polygon points="-40,368 141,368 301,271 461,368 409,368 501,316 593,368 640,368" fill="#0A3350" opacity="0.9"/><polygon points="-40,368 129,368 205,270 281,368 246,368 355,240 464,368 399,368 505,274 611,368 640,368" fill="#04223A" opacity="0.82"/><rect x="0" y="366" width="600" height="234" fill="url(#laut-wakatobi-1)"/><path d="M -20 408 q 75 -24 150 0 q 75 -24 150 0 q 75 -24 150 0 q 75 -24 150 0 q 75 -24 150 0 L 640 600 L -20 600 Z" fill="#FFFFFF" opacity="0.1"/><path d="M -20 454 q 75 -24 150 0 q 75 -24 150 0 q 75 -24 150 0 q 75 -24 150 0 q 75 -24 150 0 L 640 600 L -20 600 Z" fill="#FFFFFF" opacity="0.16"/><path d="M -20 501 q 75 -25 150 0 q 75 -25 150 0 q 75 -25 150 0 q 75 -25 150 0 q 75 -25 150 0 L 640 600 L -20 600 Z" fill="#FFFFFF" opacity="0.22"/><path d="M -20 548 q 75 -24 150 0 q 75 -24 150 0 q 75 -24 150 0 q 75 -24 150 0 q 75 -24 150 0 L 640 600 L -20 600 Z" fill="#FFFFFF" opacity="0.28"/><g fill="#001220"><path d="M 72 600 q -18 -152 -44 -304 l 26 8 q --30 152 --40 304 Z"/><g transform="translate(22,296)"><path d="M 0 0 q 103 -26 206 6 q -103 -8 -206 8 Z" fill="#001220" transform="rotate(-168)"/><path d="M 0 0 q 117 -26 234 6 q -117 -8 -234 8 Z" fill="#001220" transform="rotate(-136.8)"/><path d="M 0 0 q 97 -26 194 6 q -97 -8 -194 8 Z" fill="#001220" transform="rotate(-105.6)"/><path d="M 0 0 q 123 -26 246 6 q -123 -8 -246 8 Z" fill="#001220" transform="rotate(-74.4)"/><path d="M 0 0 q 107 -26 214 6 q -107 -8 -214 8 Z" fill="#001220" transform="rotate(-43.2)"/><path d="M 0 0 q 130 -26 260 6 q -130 -8 -260 8 Z" fill="#001220" transform="rotate(-12)"/><circle cx="0" cy="4" r="14"/></g></g></svg>